<svg width="2314" height="2356" viewBox="0 0 2314 2356" fill="none" xmlns="http://www.w3.org/2000/svg">
<mask id="mask0_2001_40" style="mask-type:luminance" maskUnits="userSpaceOnUse" x="0" y="0" width="2314" height="2356">
<path d="M0 0H2313.44V2355.54H0V0Z" fill="white"/>
</mask>
<g mask="url(#mask0_2001_40)">
<path d="M1286.65 1873.79C1152.13 1994.28 1005.35 2097.91 846.306 2184.44C803.583 2209.2 759.552 2231.98 713.981 2253.01C632.048 2219.49 554.935 2176.99 482.638 2125.73C410.563 2074.46 345.06 2015.75 286.567 1949.59C228.071 1883.43 177.903 1811.57 136.059 1734.01C94.2156 1656.46 61.7938 1575.18 39.0086 1490.18C85.2352 1518.44 133.649 1545.83 182.067 1570.8C526.892 1755.49 895.157 1856.48 1286.65 1873.79ZM625.915 1644.85C446.489 1303.31 350.317 940.068 337.392 555.147C337.392 500.595 337.392 446.043 337.392 392.808C284.157 445.606 236.618 503.005 194.774 565.007C152.931 627.004 117.657 692.509 88.7391 761.299C59.8211 830.313 37.915 901.294 23.0164 974.463C8.34081 1047.42 0.672827 1121.47 0.454102 1195.96C0.454102 1245.69 3.73917 1294.98 10.3135 1344.27C51.4969 1371.88 93.3407 1397.95 135.841 1422.7C290.946 1515.37 454.817 1589.42 627.009 1644.85H625.915ZM1307.68 171.538C1355 143.276 1403.41 114.795 1452.92 89.8219C1367.7 67.4737 1280.73 54.7706 1192.44 52.1416C1104.38 49.5127 1016.74 56.7391 930.208 74.0482C843.677 91.1343 760.208 117.866 679.806 154.01C599.407 190.16 524.263 234.852 454.157 288.087C454.157 337.162 447.587 386.238 446.489 435.309C443.86 614.519 461.169 791.753 498.192 967.018C707.192 641.246 976.872 376.159 1307.68 171.538ZM2130.31 814.539C2178.72 839.512 2227.14 866.899 2273.36 895.157C2250.58 810.156 2218.15 728.877 2176.31 651.325C2134.47 573.768 2084.3 501.912 2025.81 435.75C1967.31 369.585 1902.03 310.873 1829.74 259.61C1757.66 208.344 1680.54 166.062 1598.39 132.323C1552.82 153.354 1508.79 176.14 1466.29 200.894C1307.24 287.65 1160.46 391.277 1025.73 511.548C1417.43 528.857 1785.48 629.851 2130.31 814.539ZM1974.98 2003.48C2028.65 1950.47 2076.41 1892.85 2118.47 1830.41C2160.54 1767.97 2196.03 1702.25 2225.17 1633.02C2254.08 1563.79 2275.99 1492.37 2290.89 1418.76C2305.57 1345.15 2313.01 1270.88 2313.01 1195.96C2313.24 1146.22 2309.95 1096.93 2303.16 1047.64C2261.97 1020.91 2220.13 994.62 2177.63 969.206C2022.3 878.071 1858.65 805.335 1686.46 751.225C1865.88 1092.99 1962.06 1456.22 1974.98 1841.14C1982.65 1895.7 1982.65 1950.03 1974.98 2003.48ZM1005.79 2221.47C958.47 2249.73 910.056 2278.21 860.544 2303.18C945.981 2325.53 1032.74 2338.24 1121.02 2340.86C1209.31 2343.49 1296.72 2336.26 1383.26 2318.96C1469.79 2301.87 1553.26 2275.14 1633.66 2238.99C1714.06 2202.85 1789.42 2158.15 1859.31 2104.91C1859.31 2055.84 1865.88 2006.77 1866.98 1957.69C1869.61 1778.49 1852.3 1601.25 1815.27 1425.99C1606.28 1751.32 1336.38 2016.19 1005.79 2220.37V2221.47Z" fill="white"/>
</g>
</svg>
